# xmcd
#
# Track frame offsets:
#	182
#	14957
#	27220
#	39032
#	57832
#	70532
#	83932
#	94382
#	108457
#	120857
#	133407
#	147512
#	162432
#	173492
#	191682
#	204782
#	217307
#	231707
#	243437
#	255497
#	265842
#	281132
#	292570
#	302880
#	318207
#
# Disc length: 4375
#
# Revision: 4
# Processed by: cddbd v1.5.1PL0 Copyright (c) Steve Scherf et al.
# Submitted via: ExactAudioCopy v0.90a11
# Normalized: r3:DSETVAR1
#
DISCID=6f111519
DTITLE=Various Artist - Blues 'N' Soul Greats [CD2]
DYEAR=1900
DGENRE=
TTITLE0=Muddy Waters - Baby Please Don't Go
TTITLE1=John Lee Hooker - Hobo Blues
TTITLE2=Howlin' Wolf - Louise
TTITLE3=Billie Holiday - Fine And Mellow
TTITLE4=Gatemouth Moore - Boogie Woogie Papa
TTITLE5=Lightnin' Hopkins - Mojo Hand
TTITLE6=Leadbelly - Blue Tail Fly
TTITLE7=Ray Charles - Walkin' And Talkin'
TTITLE8=John Lee Hooker - Baby Lee
TTITLE9=Muddy Waters - Train Fare Blues
TTITLE10=Joe Turner - Wee Baby Blues
TTITLE11=Elmore James - It Hurts Me Too
TTITLE12=Billie Holiday - Fooling Myself
TTITLE13=B.B. King - Everyday I Have The Blues
TTITLE14=Little Walter - Mean Old World
TTITLE15=John Lee Hooker - Trouble Blues
TTITLE16=Howlin' Wolf - I Walked From Dallas
TTITLE17=Jimmy Reed - Where Can You Be
TTITLE18=John Lee Hooker - Crawling King Snake
TTITLE19=Ray Charles - Hey Now
TTITLE20=Billie Holiday - Easy To Remember
TTITLE21=Muddy Waters - Sittin' Here Drinkin'
TTITLE22=John Lee Hooker - Old Time Shimmy
TTITLE23=Gatemouth Moore - Somebody Got To Go
TTITLE24=Leadbelly - How Long
EXTD=
EXTT0=
EXTT1=
EXTT2=
EXTT3=
EXTT4=
EXTT5=
EXTT6=
EXTT7=
EXTT8=
EXTT9=
EXTT10=
EXTT11=
EXTT12=
EXTT13=
EXTT14=
EXTT15=
EXTT16=
EXTT17=
EXTT18=
EXTT19=
EXTT20=
EXTT21=
EXTT22=
EXTT23=
EXTT24=
PLAYORDER=
